<svg version="1.1" id="Capa_1" xmlns="http://www.w3.org/2000/svg" x="0" y="0" viewBox="-49 141 512 512" xml:space="preserve"><style>.st0{fill:#fff}</style><path class="st0" d="M92.4 257.5c-7.4-7.4-19.4-7.4-26.7 0-27.4 27.4-40.9 65.6-37 104.8 1 9.8 9.2 17 18.8 17 .6 0 1.3 0 1.9-.1 10.4-1 18-10.3 16.9-20.7-2.8-27.8 6.7-54.9 26.1-74.3 7.4-7.3 7.4-19.3 0-26.7z"/><path class="st0" d="M167.3 141C48 141-49 238-49 357.3s97 216.3 216.3 216.3 216.3-97 216.3-216.3S286.5 141 167.3 141zm0 394.7c-98.4 0-178.4-80-178.4-178.4s80-178.4 178.4-178.4 178.4 80 178.4 178.4-80 178.4-178.4 178.4z"/><path class="st0" d="M457.5 620.7L320 483.3c-7.4-7.4-19.4-7.4-26.7 0-7.4 7.4-7.4 19.4 0 26.7l137.5 137.5c3.7 3.7 8.5 5.5 13.4 5.5s9.7-1.8 13.4-5.5c7.2-7.4 7.2-19.4-.1-26.8z"/></svg>