<?xml version="1.0" standalone="no"?>
<!DOCTYPE svg PUBLIC "-//W3C//DTD SVG 20010904//EN"
 "http://www.w3.org/TR/2001/REC-SVG-20010904/DTD/svg10.dtd">
<svg version="1.0" xmlns="http://www.w3.org/2000/svg"
 width="48.000000pt" height="48.000000pt" viewBox="0 0 48.000000 48.000000"
 preserveAspectRatio="xMidYMid meet">

<g transform="translate(0.000000,48.000000) scale(0.100000,-0.100000)"
fill="#0078ae" stroke="none">
<path d="M0 240 l0 -240 240 0 240 0 0 240 0 240 -240 0 -240 0 0 -240z m250
-82 c0 -79 -15 -108 -57 -108 -23 0 -63 31 -63 50 0 13 37 13 45 0 3 -5 13
-10 21 -10 11 0 14 16 14 70 0 63 2 70 20 70 18 0 20 -7 20 -72z m157 45 c14
-21 14 -23 -2 -30 -11 -4 -22 0 -30 10 -15 20 -45 22 -45 3 0 -7 14 -19 31
-26 61 -25 74 -55 39 -90 -24 -24 -67 -26 -98 -4 -27 19 -29 44 -2 44 11 0 20
-4 20 -10 0 -13 47 -13 55 0 3 5 -14 19 -39 31 -52 24 -66 51 -40 80 25 28 91
23 111 -8z"/>
</g>
</svg>
