<?xml version="1.0" standalone="no"?>
<!DOCTYPE svg PUBLIC "-//W3C//DTD SVG 20010904//EN"
 "http://www.w3.org/TR/2001/REC-SVG-20010904/DTD/svg10.dtd">
<svg version="1.0" xmlns="http://www.w3.org/2000/svg"
 width="260.000000pt" height="260.000000pt" viewBox="0 0 260.000000 260.000000"
 preserveAspectRatio="xMidYMid meet">
<metadata>
Created by potrace 1.11, written by Peter Selinger 2001-2013
</metadata>
<g transform="translate(0.000000,260.000000) scale(0.100000,-0.100000)"
fill="#000000" stroke="none">
<path d="M0 1300 l0 -1300 1300 0 1300 0 0 1300 0 1300 -1300 0 -1300 0 0
-1300z m2052 -75 c57 -20 132 -84 158 -135 11 -21 21 -58 22 -82 l3 -43 -90 0
-89 0 -7 35 c-22 107 -193 148 -276 65 -24 -24 -33 -42 -33 -67 0 -66 36 -93
199 -147 232 -78 311 -162 298 -319 -9 -109 -69 -174 -200 -214 -56 -17 -86
-20 -161 -15 -196 11 -329 104 -343 241 l-6 56 90 0 90 0 7 -39 c12 -78 108
-132 211 -118 86 12 125 49 125 117 0 72 -55 117 -195 159 -223 69 -318 164
-302 303 13 106 84 176 217 215 59 17 220 10 282 -12z m-692 -338 c0 -387 -4
-419 -66 -487 -20 -22 -61 -52 -92 -67 -51 -25 -68 -28 -158 -28 -96 0 -105 2
-170 35 -84 43 -122 96 -131 184 l-6 56 90 0 91 0 11 -44 c27 -107 164 -128
221 -34 19 31 20 51 20 381 l0 347 95 0 95 0 0 -343z"/>
</g>
</svg>
